<mxfile host="app.diagrams.net" agent="Mozilla/5.0 (Windows NT 10.0; Win64; x64) AppleWebKit/537.36 (KHTML, like Gecko) Chrome/131.0.0.0 Safari/537.36" version="25.0.3">
  <diagram name="페이지-1" id="NgCMbQixAXPHdN-Nv_a8">
    <mxGraphModel dx="1816" dy="538" grid="1" gridSize="10" guides="1" tooltips="1" connect="1" arrows="1" fold="1" page="1" pageScale="1" pageWidth="827" pageHeight="1169" math="0" shadow="0">
      <root>
        <mxCell id="0" />
        <mxCell id="1" parent="0" />
        <mxCell id="_JbMdI6j2Q2F9HowFw2e-1" value="고객" style="whiteSpace=wrap;html=1;align=center;" vertex="1" parent="1">
          <mxGeometry x="-400" y="340" width="100" height="40" as="geometry" />
        </mxCell>
        <mxCell id="_JbMdI6j2Q2F9HowFw2e-2" value="고객명" style="ellipse;whiteSpace=wrap;html=1;align=center;" vertex="1" parent="1">
          <mxGeometry x="-450" y="270" width="100" height="40" as="geometry" />
        </mxCell>
        <mxCell id="_JbMdI6j2Q2F9HowFw2e-3" value="" style="endArrow=none;html=1;rounded=0;exitX=0.5;exitY=1;exitDx=0;exitDy=0;entryX=0.5;entryY=0;entryDx=0;entryDy=0;" edge="1" parent="1" source="_JbMdI6j2Q2F9HowFw2e-2" target="_JbMdI6j2Q2F9HowFw2e-1">
          <mxGeometry relative="1" as="geometry">
            <mxPoint x="-430" y="390" as="sourcePoint" />
            <mxPoint x="-270" y="390" as="targetPoint" />
          </mxGeometry>
        </mxCell>
        <mxCell id="_JbMdI6j2Q2F9HowFw2e-4" value="전화번호&lt;div&gt;&lt;br&gt;&lt;/div&gt;" style="ellipse;whiteSpace=wrap;html=1;align=center;fontStyle=4;" vertex="1" parent="1">
          <mxGeometry x="-310" y="270" width="100" height="40" as="geometry" />
        </mxCell>
        <mxCell id="_JbMdI6j2Q2F9HowFw2e-5" value="" style="endArrow=none;html=1;rounded=0;entryX=0.5;entryY=1;entryDx=0;entryDy=0;exitX=0.5;exitY=0;exitDx=0;exitDy=0;" edge="1" parent="1" source="_JbMdI6j2Q2F9HowFw2e-1" target="_JbMdI6j2Q2F9HowFw2e-4">
          <mxGeometry relative="1" as="geometry">
            <mxPoint x="-350" y="341" as="sourcePoint" />
            <mxPoint x="-340" y="350" as="targetPoint" />
          </mxGeometry>
        </mxCell>
        <mxCell id="_JbMdI6j2Q2F9HowFw2e-6" value="이메일&lt;div&gt;&lt;div&gt;&lt;br&gt;&lt;/div&gt;&lt;/div&gt;" style="ellipse;whiteSpace=wrap;html=1;align=center;fontStyle=4;" vertex="1" parent="1">
          <mxGeometry x="-260" y="320" width="100" height="40" as="geometry" />
        </mxCell>
        <mxCell id="_JbMdI6j2Q2F9HowFw2e-7" value="" style="endArrow=none;html=1;rounded=0;entryX=0;entryY=1;entryDx=0;entryDy=0;exitX=1;exitY=0.5;exitDx=0;exitDy=0;" edge="1" parent="1" source="_JbMdI6j2Q2F9HowFw2e-1" target="_JbMdI6j2Q2F9HowFw2e-6">
          <mxGeometry relative="1" as="geometry">
            <mxPoint x="-280" y="360" as="sourcePoint" />
            <mxPoint x="-215" y="329" as="targetPoint" />
          </mxGeometry>
        </mxCell>
        <mxCell id="_JbMdI6j2Q2F9HowFw2e-8" value="고객코드&lt;div&gt;&lt;div&gt;&lt;div&gt;&lt;br&gt;&lt;/div&gt;&lt;/div&gt;&lt;/div&gt;" style="ellipse;whiteSpace=wrap;html=1;align=center;fontStyle=4;" vertex="1" parent="1">
          <mxGeometry x="-160" y="380" width="100" height="40" as="geometry" />
        </mxCell>
        <mxCell id="_JbMdI6j2Q2F9HowFw2e-9" value="" style="endArrow=none;html=1;rounded=0;entryX=0;entryY=0.5;entryDx=0;entryDy=0;exitX=1;exitY=0.5;exitDx=0;exitDy=0;" edge="1" parent="1" source="_JbMdI6j2Q2F9HowFw2e-1" target="_JbMdI6j2Q2F9HowFw2e-8">
          <mxGeometry relative="1" as="geometry">
            <mxPoint x="-290" y="370" as="sourcePoint" />
            <mxPoint x="-235" y="364" as="targetPoint" />
          </mxGeometry>
        </mxCell>
        <mxCell id="_JbMdI6j2Q2F9HowFw2e-10" value="주소" style="ellipse;whiteSpace=wrap;html=1;align=center;" vertex="1" parent="1">
          <mxGeometry x="-530" y="320" width="100" height="40" as="geometry" />
        </mxCell>
        <mxCell id="_JbMdI6j2Q2F9HowFw2e-11" value="" style="endArrow=none;html=1;rounded=0;exitX=1;exitY=0.5;exitDx=0;exitDy=0;entryX=0;entryY=0.5;entryDx=0;entryDy=0;" edge="1" parent="1" source="_JbMdI6j2Q2F9HowFw2e-10" target="_JbMdI6j2Q2F9HowFw2e-1">
          <mxGeometry relative="1" as="geometry">
            <mxPoint x="-390" y="320" as="sourcePoint" />
            <mxPoint x="-340" y="350" as="targetPoint" />
          </mxGeometry>
        </mxCell>
        <mxCell id="_JbMdI6j2Q2F9HowFw2e-13" value="기본&lt;span style=&quot;background-color: initial;&quot;&gt;주소&lt;/span&gt;" style="ellipse;whiteSpace=wrap;html=1;align=center;" vertex="1" parent="1">
          <mxGeometry x="-650" y="270" width="100" height="40" as="geometry" />
        </mxCell>
        <mxCell id="_JbMdI6j2Q2F9HowFw2e-14" value="상세주소" style="ellipse;whiteSpace=wrap;html=1;align=center;" vertex="1" parent="1">
          <mxGeometry x="-650" y="340" width="100" height="40" as="geometry" />
        </mxCell>
        <mxCell id="_JbMdI6j2Q2F9HowFw2e-15" value="" style="endArrow=none;html=1;rounded=0;exitX=1;exitY=0.5;exitDx=0;exitDy=0;entryX=0;entryY=0.5;entryDx=0;entryDy=0;" edge="1" parent="1" source="_JbMdI6j2Q2F9HowFw2e-14" target="_JbMdI6j2Q2F9HowFw2e-10">
          <mxGeometry relative="1" as="geometry">
            <mxPoint x="-420" y="350" as="sourcePoint" />
            <mxPoint x="-390" y="370" as="targetPoint" />
          </mxGeometry>
        </mxCell>
        <mxCell id="_JbMdI6j2Q2F9HowFw2e-16" value="" style="endArrow=none;html=1;rounded=0;exitX=1;exitY=0.5;exitDx=0;exitDy=0;entryX=-0.002;entryY=0.385;entryDx=0;entryDy=0;entryPerimeter=0;" edge="1" parent="1" source="_JbMdI6j2Q2F9HowFw2e-13" target="_JbMdI6j2Q2F9HowFw2e-10">
          <mxGeometry relative="1" as="geometry">
            <mxPoint x="-540" y="370" as="sourcePoint" />
            <mxPoint x="-520" y="350" as="targetPoint" />
          </mxGeometry>
        </mxCell>
        <mxCell id="_JbMdI6j2Q2F9HowFw2e-17" value="가입일" style="ellipse;whiteSpace=wrap;html=1;align=center;" vertex="1" parent="1">
          <mxGeometry x="-490" y="400" width="100" height="40" as="geometry" />
        </mxCell>
        <mxCell id="_JbMdI6j2Q2F9HowFw2e-18" value="" style="endArrow=none;html=1;rounded=0;exitX=1;exitY=0;exitDx=0;exitDy=0;entryX=0.5;entryY=1;entryDx=0;entryDy=0;" edge="1" parent="1" source="_JbMdI6j2Q2F9HowFw2e-17" target="_JbMdI6j2Q2F9HowFw2e-1">
          <mxGeometry relative="1" as="geometry">
            <mxPoint x="-420" y="350" as="sourcePoint" />
            <mxPoint x="-390" y="370" as="targetPoint" />
          </mxGeometry>
        </mxCell>
        <mxCell id="_JbMdI6j2Q2F9HowFw2e-21" value="지역" style="whiteSpace=wrap;html=1;align=center;" vertex="1" parent="1">
          <mxGeometry x="-400" y="697" width="100" height="40" as="geometry" />
        </mxCell>
        <mxCell id="_JbMdI6j2Q2F9HowFw2e-22" value="지역명" style="ellipse;whiteSpace=wrap;html=1;align=center;" vertex="1" parent="1">
          <mxGeometry x="-530" y="657" width="100" height="40" as="geometry" />
        </mxCell>
        <mxCell id="_JbMdI6j2Q2F9HowFw2e-23" value="" style="endArrow=none;html=1;rounded=0;exitX=0;exitY=0;exitDx=0;exitDy=0;entryX=1;entryY=0.5;entryDx=0;entryDy=0;" edge="1" parent="1" source="_JbMdI6j2Q2F9HowFw2e-21" target="_JbMdI6j2Q2F9HowFw2e-22">
          <mxGeometry relative="1" as="geometry">
            <mxPoint x="-390.69" y="687" as="sourcePoint" />
            <mxPoint x="-390.69" y="607" as="targetPoint" />
          </mxGeometry>
        </mxCell>
        <mxCell id="_JbMdI6j2Q2F9HowFw2e-25" value="지역코드&lt;div&gt;&lt;br&gt;&lt;/div&gt;" style="ellipse;whiteSpace=wrap;html=1;align=center;fontStyle=4;" vertex="1" parent="1">
          <mxGeometry x="-530" y="737" width="100" height="40" as="geometry" />
        </mxCell>
        <mxCell id="_JbMdI6j2Q2F9HowFw2e-26" value="" style="endArrow=none;html=1;rounded=0;entryX=1;entryY=0.5;entryDx=0;entryDy=0;" edge="1" parent="1" target="_JbMdI6j2Q2F9HowFw2e-25">
          <mxGeometry relative="1" as="geometry">
            <mxPoint x="-400" y="737" as="sourcePoint" />
            <mxPoint x="-430" y="717" as="targetPoint" />
          </mxGeometry>
        </mxCell>
        <mxCell id="_JbMdI6j2Q2F9HowFw2e-27" value="제품" style="whiteSpace=wrap;html=1;align=center;" vertex="1" parent="1">
          <mxGeometry x="207" y="575" width="100" height="40" as="geometry" />
        </mxCell>
        <mxCell id="_JbMdI6j2Q2F9HowFw2e-28" value="제품&lt;span style=&quot;background-color: initial;&quot;&gt;명&lt;/span&gt;" style="ellipse;whiteSpace=wrap;html=1;align=center;" vertex="1" parent="1">
          <mxGeometry x="216" y="443" width="100" height="40" as="geometry" />
        </mxCell>
        <mxCell id="_JbMdI6j2Q2F9HowFw2e-29" value="" style="endArrow=none;html=1;rounded=0;exitX=0.5;exitY=0;exitDx=0;exitDy=0;entryX=0.5;entryY=1;entryDx=0;entryDy=0;" edge="1" parent="1" source="_JbMdI6j2Q2F9HowFw2e-27" target="_JbMdI6j2Q2F9HowFw2e-28">
          <mxGeometry relative="1" as="geometry">
            <mxPoint x="216.31" y="565" as="sourcePoint" />
            <mxPoint x="216.31" y="485" as="targetPoint" />
          </mxGeometry>
        </mxCell>
        <mxCell id="_JbMdI6j2Q2F9HowFw2e-30" value="제품코드&lt;div&gt;&lt;br&gt;&lt;/div&gt;" style="ellipse;whiteSpace=wrap;html=1;align=center;fontStyle=4;" vertex="1" parent="1">
          <mxGeometry x="96" y="463" width="100" height="40" as="geometry" />
        </mxCell>
        <mxCell id="_JbMdI6j2Q2F9HowFw2e-31" value="" style="endArrow=none;html=1;rounded=0;entryX=0.5;entryY=1;entryDx=0;entryDy=0;exitX=0.5;exitY=0;exitDx=0;exitDy=0;" edge="1" parent="1" target="_JbMdI6j2Q2F9HowFw2e-30" source="_JbMdI6j2Q2F9HowFw2e-27">
          <mxGeometry relative="1" as="geometry">
            <mxPoint x="207" y="615" as="sourcePoint" />
            <mxPoint x="177" y="595" as="targetPoint" />
          </mxGeometry>
        </mxCell>
        <mxCell id="_JbMdI6j2Q2F9HowFw2e-32" value="제품구분" style="ellipse;whiteSpace=wrap;html=1;align=center;" vertex="1" parent="1">
          <mxGeometry x="326" y="453" width="100" height="40" as="geometry" />
        </mxCell>
        <mxCell id="_JbMdI6j2Q2F9HowFw2e-33" value="" style="endArrow=none;html=1;rounded=0;exitX=0.5;exitY=0;exitDx=0;exitDy=0;entryX=0.5;entryY=1;entryDx=0;entryDy=0;" edge="1" parent="1" source="_JbMdI6j2Q2F9HowFw2e-27" target="_JbMdI6j2Q2F9HowFw2e-32">
          <mxGeometry relative="1" as="geometry">
            <mxPoint x="267" y="585" as="sourcePoint" />
            <mxPoint x="287" y="520" as="targetPoint" />
          </mxGeometry>
        </mxCell>
        <mxCell id="_JbMdI6j2Q2F9HowFw2e-34" value="제품색상" style="ellipse;shape=doubleEllipse;margin=3;whiteSpace=wrap;html=1;align=center;" vertex="1" parent="1">
          <mxGeometry x="407" y="545" width="100" height="40" as="geometry" />
        </mxCell>
        <mxCell id="_JbMdI6j2Q2F9HowFw2e-35" value="가격" style="ellipse;whiteSpace=wrap;html=1;align=center;" vertex="1" parent="1">
          <mxGeometry x="407" y="610" width="100" height="40" as="geometry" />
        </mxCell>
        <mxCell id="_JbMdI6j2Q2F9HowFw2e-36" value="" style="endArrow=none;html=1;rounded=0;exitX=1;exitY=0.5;exitDx=0;exitDy=0;entryX=0;entryY=0.5;entryDx=0;entryDy=0;" edge="1" parent="1" source="_JbMdI6j2Q2F9HowFw2e-27" target="_JbMdI6j2Q2F9HowFw2e-34">
          <mxGeometry relative="1" as="geometry">
            <mxPoint x="267" y="585" as="sourcePoint" />
            <mxPoint x="397" y="530" as="targetPoint" />
          </mxGeometry>
        </mxCell>
        <mxCell id="_JbMdI6j2Q2F9HowFw2e-37" value="" style="endArrow=none;html=1;rounded=0;exitX=1;exitY=0.5;exitDx=0;exitDy=0;entryX=0;entryY=0.5;entryDx=0;entryDy=0;" edge="1" parent="1" source="_JbMdI6j2Q2F9HowFw2e-27" target="_JbMdI6j2Q2F9HowFw2e-35">
          <mxGeometry relative="1" as="geometry">
            <mxPoint x="317" y="605" as="sourcePoint" />
            <mxPoint x="417" y="560" as="targetPoint" />
          </mxGeometry>
        </mxCell>
        <mxCell id="_JbMdI6j2Q2F9HowFw2e-38" value="관리" style="shape=rhombus;perimeter=rhombusPerimeter;whiteSpace=wrap;html=1;align=center;" vertex="1" parent="1">
          <mxGeometry x="-410" y="555" width="120" height="60" as="geometry" />
        </mxCell>
        <mxCell id="_JbMdI6j2Q2F9HowFw2e-39" value="" style="endArrow=none;html=1;rounded=0;exitX=0.5;exitY=0;exitDx=0;exitDy=0;entryX=0.5;entryY=1;entryDx=0;entryDy=0;" edge="1" parent="1" source="_JbMdI6j2Q2F9HowFw2e-38" target="_JbMdI6j2Q2F9HowFw2e-1">
          <mxGeometry relative="1" as="geometry">
            <mxPoint x="-340" y="470" as="sourcePoint" />
            <mxPoint x="-350" y="390" as="targetPoint" />
          </mxGeometry>
        </mxCell>
        <mxCell id="_JbMdI6j2Q2F9HowFw2e-40" value="N" style="edgeLabel;html=1;align=center;verticalAlign=middle;resizable=0;points=[];" vertex="1" connectable="0" parent="_JbMdI6j2Q2F9HowFw2e-39">
          <mxGeometry x="-0.5003" relative="1" as="geometry">
            <mxPoint y="18" as="offset" />
          </mxGeometry>
        </mxCell>
        <mxCell id="_JbMdI6j2Q2F9HowFw2e-41" value="" style="endArrow=none;html=1;rounded=0;exitX=0.5;exitY=0;exitDx=0;exitDy=0;entryX=0.5;entryY=1;entryDx=0;entryDy=0;" edge="1" parent="1" source="_JbMdI6j2Q2F9HowFw2e-21" target="_JbMdI6j2Q2F9HowFw2e-38">
          <mxGeometry relative="1" as="geometry">
            <mxPoint x="-350.69" y="675" as="sourcePoint" />
            <mxPoint x="-351" y="610" as="targetPoint" />
          </mxGeometry>
        </mxCell>
        <mxCell id="_JbMdI6j2Q2F9HowFw2e-42" value="1" style="edgeLabel;html=1;align=center;verticalAlign=middle;resizable=0;points=[];" vertex="1" connectable="0" parent="_JbMdI6j2Q2F9HowFw2e-41">
          <mxGeometry x="-0.5003" relative="1" as="geometry">
            <mxPoint y="-46" as="offset" />
          </mxGeometry>
        </mxCell>
        <mxCell id="_JbMdI6j2Q2F9HowFw2e-43" value="구매" style="shape=rhombus;perimeter=rhombusPerimeter;whiteSpace=wrap;html=1;align=center;" vertex="1" parent="1">
          <mxGeometry x="-132" y="466" width="120" height="60" as="geometry" />
        </mxCell>
        <mxCell id="_JbMdI6j2Q2F9HowFw2e-44" value="구매번호" style="ellipse;whiteSpace=wrap;html=1;align=center;fontStyle=4;" vertex="1" parent="1">
          <mxGeometry x="-232" y="586" width="100" height="40" as="geometry" />
        </mxCell>
        <mxCell id="_JbMdI6j2Q2F9HowFw2e-45" value="수량" style="ellipse;whiteSpace=wrap;html=1;align=center;" vertex="1" parent="1">
          <mxGeometry x="-122" y="586" width="100" height="40" as="geometry" />
        </mxCell>
        <mxCell id="_JbMdI6j2Q2F9HowFw2e-46" value="구매일자" style="ellipse;whiteSpace=wrap;html=1;align=center;" vertex="1" parent="1">
          <mxGeometry x="-12" y="586" width="100" height="40" as="geometry" />
        </mxCell>
        <mxCell id="_JbMdI6j2Q2F9HowFw2e-47" value="" style="endArrow=none;html=1;rounded=0;entryX=0.5;entryY=1;entryDx=0;entryDy=0;exitX=0.5;exitY=0;exitDx=0;exitDy=0;" edge="1" parent="1" source="_JbMdI6j2Q2F9HowFw2e-44" target="_JbMdI6j2Q2F9HowFw2e-43">
          <mxGeometry relative="1" as="geometry">
            <mxPoint x="40" y="571" as="sourcePoint" />
            <mxPoint x="-60" y="526" as="targetPoint" />
          </mxGeometry>
        </mxCell>
        <mxCell id="_JbMdI6j2Q2F9HowFw2e-48" value="" style="endArrow=none;html=1;rounded=0;entryX=0.5;entryY=1;entryDx=0;entryDy=0;exitX=0.5;exitY=0;exitDx=0;exitDy=0;" edge="1" parent="1" source="_JbMdI6j2Q2F9HowFw2e-46" target="_JbMdI6j2Q2F9HowFw2e-43">
          <mxGeometry relative="1" as="geometry">
            <mxPoint x="-181" y="571" as="sourcePoint" />
            <mxPoint x="-62" y="536" as="targetPoint" />
          </mxGeometry>
        </mxCell>
        <mxCell id="_JbMdI6j2Q2F9HowFw2e-49" value="" style="endArrow=none;html=1;rounded=0;entryX=0.5;entryY=1;entryDx=0;entryDy=0;exitX=0.5;exitY=0;exitDx=0;exitDy=0;" edge="1" parent="1" source="_JbMdI6j2Q2F9HowFw2e-45" target="_JbMdI6j2Q2F9HowFw2e-43">
          <mxGeometry relative="1" as="geometry">
            <mxPoint x="-171" y="581" as="sourcePoint" />
            <mxPoint x="-52" y="546" as="targetPoint" />
          </mxGeometry>
        </mxCell>
        <mxCell id="_JbMdI6j2Q2F9HowFw2e-50" value="" style="endArrow=none;html=1;rounded=0;exitX=0;exitY=0;exitDx=0;exitDy=0;entryX=1;entryY=1;entryDx=0;entryDy=0;" edge="1" parent="1" source="_JbMdI6j2Q2F9HowFw2e-43" target="_JbMdI6j2Q2F9HowFw2e-1">
          <mxGeometry relative="1" as="geometry">
            <mxPoint x="-340" y="565" as="sourcePoint" />
            <mxPoint x="-340" y="390" as="targetPoint" />
          </mxGeometry>
        </mxCell>
        <mxCell id="_JbMdI6j2Q2F9HowFw2e-51" value="N" style="edgeLabel;html=1;align=center;verticalAlign=middle;resizable=0;points=[];" vertex="1" connectable="0" parent="_JbMdI6j2Q2F9HowFw2e-50">
          <mxGeometry x="-0.5003" relative="1" as="geometry">
            <mxPoint x="30" y="14" as="offset" />
          </mxGeometry>
        </mxCell>
        <mxCell id="_JbMdI6j2Q2F9HowFw2e-52" value="" style="endArrow=none;html=1;rounded=0;exitX=0;exitY=0;exitDx=0;exitDy=0;entryX=1;entryY=1;entryDx=0;entryDy=0;" edge="1" parent="1" source="_JbMdI6j2Q2F9HowFw2e-27" target="_JbMdI6j2Q2F9HowFw2e-43">
          <mxGeometry relative="1" as="geometry">
            <mxPoint x="-330" y="575" as="sourcePoint" />
            <mxPoint x="-330" y="400" as="targetPoint" />
          </mxGeometry>
        </mxCell>
        <mxCell id="_JbMdI6j2Q2F9HowFw2e-53" value="M" style="edgeLabel;html=1;align=center;verticalAlign=middle;resizable=0;points=[];" vertex="1" connectable="0" parent="_JbMdI6j2Q2F9HowFw2e-52">
          <mxGeometry x="-0.5003" relative="1" as="geometry">
            <mxPoint x="-157" y="-39" as="offset" />
          </mxGeometry>
        </mxCell>
      </root>
    </mxGraphModel>
  </diagram>
</mxfile>
